<?xml version="1.0" encoding="utf-8"?>
<!-- Generator: Adobe Illustrator 23.1.1, SVG Export Plug-In . SVG Version: 6.00 Build 0)  -->
<svg version="1.1" id="Layer_1" xmlns="http://www.w3.org/2000/svg" xmlns:xlink="http://www.w3.org/1999/xlink" x="0px" y="0px"
	 viewBox="0 0 743.09 486.93" style="enable-background:new 0 0 743.09 486.93;" xml:space="preserve">
<style type="text/css">
	.st0{fill:none;stroke:#FFFFFF;stroke-width:0.7605;}
	.st1{fill:none;stroke:#CBCBCA;stroke-width:0.7605;}
	.st2{opacity:0.5;fill:none;stroke:#FFFFFF;stroke-width:2.2131;enable-background:new    ;}
	.st3{opacity:0.5;fill:none;stroke:#FFFFFF;stroke-width:0.7605;enable-background:new    ;}
	.st4{opacity:0.5;fill:none;stroke:#FFFFFF;stroke-width:0.7646;enable-background:new    ;}
	.st5{fill:none;}
	.st6{fill:#FFFFFF;}
	.st7{font-family:'Roboto';}
	.st8{font-size:8.5855px;}
	.st9{font-size:13px;}
	.st10{font-size:9px;}
	.st11{fill:#9E6A76;}
	.st12{fill:#004552;}
	.st13{fill:#57214B;}
	.st14{fill:#030304;}
	.st15{fill:#F4E3D2;}
	.st16{fill:#608797;}
	.st17{fill:#104181;}
	.st18{fill:#7C67A6;}
	.st19{fill:#0D285B;}
	.st20{fill:#13655B;}
	.st21{fill:#492F78;}
	.st22{fill:#6F7488;}
	.st23{font-size:8px;}
	.st24{fill:#231F20;}
	.st25{font-family:'Roboto';font-weight: bold;}
	.st26{fill:none;stroke:#000000;stroke-miterlimit:10;}
	.st27{fill:#ABABB7;}
	.st28{fill:#707589;}
</style>
<g id="second-stream">
	<g id="grid">
		<path class="st0" d="M9.11,451.68v-3.94h726.17"/>
		<g transform="translate(0.6873230714791224,0)">
			<line class="st1" x1="7.57" y1="447.38" x2="7.57" y2="451.68"/>
			<line class="st1" x1="72.95" y1="447.38" x2="72.95" y2="451.68"/>
			<line class="st1" x1="139.08" y1="447.38" x2="139.08" y2="451.68"/>
			<line class="st1" x1="205.93" y1="447.38" x2="205.93" y2="451.68"/>
			<line class="st1" x1="272.82" y1="447.38" x2="272.82" y2="451.68"/>
			<line class="st1" x1="338.19" y1="447.38" x2="338.19" y2="451.68"/>
			<line class="st1" x1="404.32" y1="447.38" x2="404.32" y2="451.68"/>
			<line class="st1" x1="471.18" y1="447.38" x2="471.18" y2="451.68"/>
			<line class="st1" x1="493.47" y1="447.38" x2="493.47" y2="451.68"/>
			<line class="st1" x1="515.77" y1="447.38" x2="515.77" y2="451.68"/>
			<line class="st1" x1="426.61" y1="447.38" x2="426.61" y2="451.68"/>
			<line class="st1" x1="448.89" y1="447.38" x2="448.89" y2="451.68"/>
			<line class="st1" x1="360.48" y1="447.38" x2="360.48" y2="451.68"/>
			<line class="st1" x1="382.76" y1="447.38" x2="382.76" y2="451.68"/>
			<line class="st1" x1="294.61" y1="447.38" x2="294.61" y2="451.68"/>
			<line class="st1" x1="316.4" y1="447.38" x2="316.4" y2="451.68"/>
			<line class="st1" x1="228.23" y1="447.38" x2="228.23" y2="451.68"/>
			<line class="st1" x1="250.52" y1="447.38" x2="250.52" y2="451.68"/>
			<line class="st1" x1="161.36" y1="447.38" x2="161.36" y2="451.68"/>
			<line class="st1" x1="183.65" y1="447.38" x2="183.65" y2="451.68"/>
			<line class="st1" x1="94.98" y1="447.38" x2="94.98" y2="451.68"/>
			<line class="st1" x1="117.03" y1="447.38" x2="117.03" y2="451.68"/>
			<line class="st1" x1="29.36" y1="447.38" x2="29.36" y2="451.68"/>
			<line class="st1" x1="51.15" y1="447.38" x2="51.15" y2="451.68"/>
			<line class="st1" x1="559.85" y1="447.56" x2="559.85" y2="451.85"/>
			<line class="st1" x1="581.65" y1="447.56" x2="581.65" y2="451.85"/>
			<line class="st1" x1="625.48" y1="447.56" x2="625.48" y2="451.85"/>
			<line class="st1" x1="647.52" y1="447.56" x2="647.52" y2="451.85"/>
			<line class="st1" x1="538.06" y1="447.38" x2="538.06" y2="451.68"/>
			<line class="st1" x1="603.44" y1="447.38" x2="603.44" y2="451.68"/>
			<line class="st1" x1="669.57" y1="447.38" x2="669.57" y2="451.68"/>
			<line class="st2" x1="8.57" y1="88" x2="8.57" y2="451.68"/>
		</g>
		<line class="st3" x1="73.63" y1="244.48" x2="73.63" y2="451.68"/>
		<line class="st3" x1="139.76" y1="244.48" x2="139.76" y2="451.68"/>
		<line class="st3" x1="206.62" y1="244.48" x2="206.62" y2="451.68"/>
		<line class="st2" x1="273.51" y1="88" x2="273.51" y2="451.68"/>
		<line class="st3" x1="338.87" y1="244.48" x2="338.87" y2="451.68"/>
		<line class="st4" x1="405.01" y1="254.12" x2="405.01" y2="451.66"/>
		<line class="st3" x1="471.87" y1="244.48" x2="471.87" y2="451.68"/>
		<line class="st3" x1="494.16" y1="244.48" x2="494.16" y2="451.68"/>
		<line class="st3" x1="516.46" y1="244.48" x2="516.46" y2="451.68"/>
		<line class="st3" x1="427.3" y1="244.48" x2="427.3" y2="451.68"/>
		<line class="st3" x1="449.58" y1="244.48" x2="449.58" y2="451.68"/>
		<line class="st3" x1="361.17" y1="244.48" x2="361.17" y2="451.68"/>
		<line class="st3" x1="383.45" y1="244.66" x2="383.45" y2="451.68"/>
		<line class="st3" x1="295.3" y1="244.48" x2="295.3" y2="451.68"/>
		<line class="st3" x1="317.08" y1="244.48" x2="317.08" y2="451.68"/>
		<line class="st3" x1="228.92" y1="244.48" x2="228.92" y2="451.68"/>
		<line class="st3" x1="251.21" y1="244.48" x2="251.21" y2="451.68"/>
		<line class="st3" x1="162.04" y1="244.48" x2="162.04" y2="451.68"/>
		<line class="st3" x1="184.33" y1="244.48" x2="184.33" y2="451.68"/>
		<line class="st3" x1="95.67" y1="244.48" x2="95.67" y2="451.68"/>
		<line class="st3" x1="117.72" y1="244.48" x2="117.72" y2="451.68"/>
		<line class="st3" x1="30.05" y1="244.48" x2="30.05" y2="451.68"/>
		<line class="st3" x1="51.84" y1="244.48" x2="51.84" y2="451.68"/>
		<line class="st3" x1="560.54" y1="244.66" x2="560.54" y2="451.85"/>
		<line class="st3" x1="582.33" y1="244.66" x2="582.33" y2="451.85"/>
		<line class="st3" x1="626.16" y1="244.66" x2="626.16" y2="451.85"/>
		<line class="st3" x1="648.21" y1="244.66" x2="648.21" y2="451.85"/>
		<line class="st2" x1="538.75" y1="88" x2="538.75" y2="451.68"/>
		<line class="st3" x1="604.13" y1="244.48" x2="604.13" y2="451.68"/>
		<line class="st3" x1="670.26" y1="244.48" x2="670.26" y2="451.68"/>
		<line class="st3" x1="692.11" y1="244.48" x2="692.11" y2="451.68"/>
		<line class="st3" x1="713.85" y1="244.48" x2="713.85" y2="451.68"/>
		<line class="st3" x1="735.41" y1="244.48" x2="735.41" y2="451.68"/>
		<g>
			<rect y="458.48" class="st5" width="16.51" height="13.36"/>
			<text transform="matrix(1 0 0 1 6.0819 464.9212)" class="st6 st7 st8">J</text>
			<rect x="21.79" y="458.48" class="st5" width="16.51" height="13.36"/>
			<text transform="matrix(1 0 0 1 27.87 464.9212)" class="st6 st7 st8">F</text>
			<rect x="43.58" y="458.48" class="st5" width="16.51" height="13.36"/>
			<text transform="matrix(1 0 0 1 48.3964 464.9193)" class="st6 st7 st8">M</text>
			<rect x="65.38" y="458.48" class="st5" width="16.51" height="13.36"/>
			<text transform="matrix(1 0 0 1 71.0585 464.9193)" class="st6 st7 st8">A</text>
			<rect x="87.41" y="458.48" class="st5" width="16.51" height="13.36"/>
			<text transform="matrix(1 0 0 1 92.2294 464.9193)" class="st6 st7 st8">M</text>
			<rect x="109.46" y="458.48" class="st5" width="16.51" height="13.36"/>
			<text transform="matrix(1 0 0 1 115.5428 464.9193)" class="st6 st7 st8">J</text>
			<rect x="131.51" y="458.48" class="st5" width="16.51" height="13.36"/>
			<text transform="matrix(1 0 0 1 137.5848 464.9193)" class="st6 st7 st8">J</text>
			<rect x="153.79" y="458.48" class="st5" width="16.51" height="13.36"/>
			<text transform="matrix(1 0 0 1 159.4735 464.9193)" class="st6 st7 st8">A</text>
			<rect x="176.08" y="458.48" class="st5" width="16.51" height="13.36"/>
			<text transform="matrix(1 0 0 1 181.993 464.9193)" class="st6 st7 st8">S</text>
			<rect x="198.36" y="458.48" class="st5" width="16.51" height="13.36"/>
			<text transform="matrix(1 0 0 1 203.9061 464.9193)" class="st6 st7 st8">O</text>
			<rect x="220.66" y="458.48" class="st5" width="16.51" height="13.36"/>
			<text transform="matrix(1 0 0 1 226.1005 464.9193)" class="st6 st7 st8">N</text>
			<rect x="242.95" y="458.48" class="st5" width="16.51" height="13.36"/>
			<text transform="matrix(1 0 0 1 248.6219 464.9193)" class="st6 st7 st8">D</text>
			<rect x="264.45" y="458.48" class="st5" width="16.51" height="13.36"/>
			<text transform="matrix(1 0 0 1 270.5341 464.9212)" class="st6 st7 st8">J</text>
			<rect x="286.24" y="458.48" class="st5" width="16.51" height="13.36"/>
			<text transform="matrix(1 0 0 1 292.3212 464.9212)" class="st6 st7 st8">F</text>
			<rect x="308.03" y="458.48" class="st5" width="16.51" height="13.36"/>
			<text transform="matrix(1 0 0 1 312.8466 464.9193)" class="st6 st7 st8">M</text>
			<rect x="329.82" y="458.48" class="st5" width="16.51" height="13.36"/>
			<text transform="matrix(1 0 0 1 335.5096 464.9193)" class="st6 st7 st8">A</text>
			<rect x="351.87" y="458.48" class="st5" width="16.51" height="13.36"/>
			<text transform="matrix(1 0 0 1 356.6805 464.9193)" class="st6 st7 st8">M</text>
			<rect x="373.91" y="458.48" class="st5" width="16.51" height="13.36"/>
			<text transform="matrix(1 0 0 1 379.9921 464.9193)" class="st6 st7 st8">J</text>
			<rect x="395.95" y="458.48" class="st5" width="16.51" height="13.36"/>
			<text transform="matrix(1 0 0 1 402.035 464.9193)" class="st6 st7 st8">J</text>
			<rect x="418.24" y="458.48" class="st5" width="16.51" height="13.36"/>
			<text transform="matrix(1 0 0 1 423.9247 464.9193)" class="st6 st7 st8">A</text>
			<rect x="440.53" y="458.48" class="st5" width="16.51" height="13.36"/>
			<text transform="matrix(1 0 0 1 446.4413 464.9193)" class="st6 st7 st8">S</text>
			<rect x="462.81" y="458.48" class="st5" width="16.51" height="13.36"/>
			<text transform="matrix(1 0 0 1 468.3553 464.9193)" class="st6 st7 st8">O</text>
			<rect x="485.11" y="458.48" class="st5" width="16.51" height="13.36"/>
			<text transform="matrix(1 0 0 1 490.5516 464.9193)" class="st6 st7 st8">N</text>
			<rect x="507.4" y="458.48" class="st5" width="16.51" height="13.36"/>
			<text transform="matrix(1 0 0 1 513.0731 464.9193)" class="st6 st7 st8">D</text>
			<rect x="529.55" y="458.48" class="st5" width="16.51" height="13.36"/>
			<text transform="matrix(1 0 0 1 535.6356 464.9212)" class="st6 st7 st8">J</text>
			<rect x="551.34" y="458.48" class="st5" width="16.51" height="13.36"/>
			<text transform="matrix(1 0 0 1 557.4227 464.9212)" class="st6 st7 st8">F</text>
			<rect x="573.13" y="458.48" class="st5" width="16.51" height="13.36"/>
			<text transform="matrix(1 0 0 1 577.9501 464.9193)" class="st6 st7 st8">M</text>
			<rect x="594.93" y="458.48" class="st5" width="16.51" height="13.36"/>
			<text transform="matrix(1 0 0 1 600.6132 464.9193)" class="st6 st7 st8">A</text>
			<rect x="616.97" y="458.48" class="st5" width="16.51" height="13.36"/>
			<text transform="matrix(1 0 0 1 621.7841 464.9193)" class="st6 st7 st8">M</text>
			<rect x="639.01" y="458.48" class="st5" width="16.51" height="13.36"/>
			<text transform="matrix(1 0 0 1 645.0966 464.9193)" class="st6 st7 st8">J</text>
			<rect x="661.06" y="458.48" class="st5" width="16.51" height="13.36"/>
			<text transform="matrix(1 0 0 1 667.1395 464.9193)" class="st6 st7 st8">J</text>
			<rect x="685.7" y="458.48" class="st5" width="16.51" height="13.36"/>
			<text transform="matrix(1 0 0 1 691.3885 464.9193)" class="st6 st7 st8">A</text>
			<rect x="705.43" y="458.48" class="st5" width="16.51" height="13.36"/>
			<text transform="matrix(1 0 0 1 711.3485 464.9193)" class="st6 st7 st8">S</text>
			<rect x="727.02" y="458.48" class="st5" width="16.51" height="13.36"/>
			<text transform="matrix(1 0 0 1 732.5624 464.9193)" class="st6 st7 st8">O</text>
		</g>
		<text transform="matrix(1 0 0 1 126.8352 102.2904)" class="st6 st7 st9">2017</text>
		<text transform="matrix(1 0 0 1 391.4104 102.2904)" class="st6 st7 st9">2018</text>
		<text transform="matrix(1 0 0 1 623.4103 102.2904)" class="st6 st7 st9">2019</text>
		<text transform="matrix(1 0 0 1 126.8352 485.2903)" class="st6 st7 st9">2017</text>
		<text transform="matrix(1 0 0 1 391.4104 485.2903)" class="st6 st7 st9">2018</text>
		<text transform="matrix(1 0 0 1 623.4103 485.2903)" class="st6 st7 st9">2019</text>
		<text transform="matrix(1 0 0 1 16.5132 122.416)" class="st6 st7 st10">Height indicates</text>
		<text transform="matrix(1 0 0 1 16.5132 133.316)" class="st6 st7 st10">number of protests </text>
		<text transform="matrix(1 0 0 1 16.5132 144.216)" class="st6 st7 st10">per month</text>
	</g>
	<g id="chart">
		<path class="st11" d="M7.45,223.78l3.75-1.05c3.75-1.05,11.26-3.16,18.4-4.02c7.14-0.85,13.92-0.45,21.07-0.06
			s14.65,0.8,22.04,2.99s14.65,6.16,22.04,8.66s14.89,3.52,22.28,4.81s14.65,2.84,22.04-1.04c7.39-3.88,14.89-13.21,22.4-16.73
			s15.01-1.27,22.4,2.13c7.39,3.4,14.65,7.92,22.04,11.74c7.39,3.82,14.89,6.92,22.28,9.49c7.39,2.56,14.65,4.58,22.04,1.81
			s14.89-10.34,22.4-14.4c7.51-4.06,15.01-4.62,22.16-25.04s13.92-60.7,21.07-64.75s14.65,28.13,22.04,50.78
			s14.65,35.77,22.04,32.57s14.89-22.71,22.28-22.67c7.39,0.03,14.65,19.61,22.04,29.31s14.89,9.52,22.4,7.3
			c7.51-2.22,15.01-6.48,22.4-10.53c7.39-4.05,14.65-7.89,22.04-5.99s14.89,9.53,22.28,16.28c7.39,6.75,14.65,12.61,22.04,10.72
			s14.89-11.52,22.4-14.14s15.01,1.78,22.16,3.23c7.14,1.45,13.92-0.03,21.07-0.84c7.14-0.81,14.65-0.94,22.04-3.78
			c7.39-2.84,14.65-8.39,22.04-8.33c7.39,0.06,14.89,5.72,22.28,6.59c7.39,0.88,14.65-3.03,22.04-3.18s14.89,3.44,22.4,3.52
			s15.01-3.36,22.4-3.33s14.65,3.54,18.28,5.29l3.63,1.75l0,0l-3.63-1.75c-3.63-1.75-10.9-5.26-18.28-5.29
			c-7.39-0.03-14.89,3.41-22.4,3.33s-15.01-3.67-22.4-3.52s-14.65,4.06-22.04,3.18c-7.39-0.88-14.89-6.54-22.28-6.59
			c-7.39-0.06-14.65,5.49-22.04,8.33c-7.39,2.84-14.89,2.97-22.04,3.78c-7.14,0.81-13.92,2.3-21.07,0.84
			c-7.14-1.45-14.65-5.85-22.16-3.23c-7.51,2.62-15.01,12.25-22.4,14.14s-14.65-3.97-22.04-7.92s-14.89-5.99-22.28-5.63
			c-7.39,0.37-14.65,3.14-22.04,4.86s-14.89,2.39-22.4,2.67c-7.51,0.29-15.01,0.2-22.4-9.94c-7.39-10.14-14.65-30.34-22.04-30.71
			s-14.89,19.1-22.28,22.27c-7.39,3.17-14.65-9.94-22.04-32.59s-14.89-54.83-22.04-50.78s-13.92,44.33-21.07,64.75
			s-14.65,20.97-22.16,25.04c-7.51,4.06-15.01,11.63-22.4,14.4c-7.39,2.77-14.65,0.75-22.04-1.81c-7.39-2.56-14.89-5.67-22.28-9.47
			s-14.65-8.28-22.04-11.67c-7.39-3.4-14.89-5.7-22.4-2.2c-7.51,3.51-15.01,12.83-22.4,16.71s-14.65,2.33-22.04,1.04
			s-14.89-2.31-22.28-4.78s-14.65-6.4-22.04-8.52c-7.39-2.12-14.89-2.43-22.04-2.83s-13.92-0.89-21.07-0.1
			c-7.14,0.79-14.65,2.85-18.4,3.88L7.45,223.78z"/>
		<path class="st12" d="M7.45,223.78l3.75-1.03c3.75-1.03,11.26-3.1,18.4-3.88c7.14-0.79,13.92-0.3,21.07,0.1s14.65,0.71,22.04,2.83
			s14.65,6.05,22.04,8.52s14.89,3.5,22.28,4.78s14.65,2.84,22.04-1.04c7.39-3.88,14.89-13.21,22.4-16.71
			c7.51-3.51,15.01-1.2,22.4,2.2s14.65,7.88,22.04,11.67c7.39,3.8,14.89,6.9,22.28,9.47c7.39,2.56,14.65,4.58,22.04,1.81
			s14.89-10.34,22.4-14.4c7.51-4.06,15.01-4.62,22.16-25.04s13.92-60.7,21.07-64.75s14.65,28.13,22.04,50.78
			s14.65,35.77,22.04,32.59c7.39-3.17,14.89-22.64,22.28-22.27c7.39,0.37,14.65,20.56,22.04,30.71c7.39,10.14,14.89,10.23,22.4,9.94
			c7.51-0.29,15.01-0.95,22.4-2.67c7.39-1.72,14.65-4.49,22.04-4.86s14.89,1.68,22.28,5.63c7.39,3.95,14.65,9.81,22.04,7.92
			s14.89-11.52,22.4-14.14s15.01,1.78,22.16,3.23c7.14,1.45,13.92-0.03,21.07-0.84c7.14-0.81,14.65-0.94,22.04-3.78
			c7.39-2.84,14.65-8.39,22.04-8.33c7.39,0.06,14.89,5.72,22.28,6.59c7.39,0.88,14.65-3.03,22.04-3.18s14.89,3.44,22.4,3.52
			s15.01-3.36,22.4-3.33s14.65,3.54,18.28,5.29l3.63,1.75v6.53l-3.63-2.55c-3.63-2.55-10.9-7.66-18.28-8.47
			c-7.39-0.81-14.89,2.67-22.4,2.57s-15.01-3.78-22.4-3.25s-14.65,5.28-22.04,10.38c-7.39,5.09-14.89,10.53-22.28,10.85
			s-14.65-4.47-22.04-7.07c-7.39-2.6-14.89-3-22.04-2.76c-7.14,0.23-13.92,1.1-21.07,3.24c-7.14,2.14-14.65,5.56-22.16,7.87
			c-7.51,2.31-15.01,3.51-22.4,1.53s-14.65-7.12-22.04-7.97c-7.39-0.84-14.89,2.62-22.28,4.76c-7.39,2.14-14.65,2.96-22.04,1.73
			c-7.39-1.23-14.89-4.52-22.4-6.43c-7.51-1.91-15.01-2.44-22.4-12.63c-7.39-10.19-14.65-30.03-22.04-30.28
			c-7.39-0.26-14.89,19.08-22.28,22.85c-7.39,3.77-14.65-8.01-22.04-29.93s-14.89-53.97-22.04-50.4
			c-7.14,3.56-13.92,42.74-21.07,68.99s-14.65,39.6-22.16,43.46s-15.01-1.75-22.4-5.57c-7.39-3.82-14.65-5.84-22.04-7.78
			c-7.39-1.94-14.89-3.81-22.28-7.4s-14.65-8.92-22.04-12.83c-7.39-3.91-14.89-6.39-22.4-2.95s-15.01,12.81-22.4,16.67
			s-14.65,2.22-22.04,0.87s-14.89-2.42-22.28-4.16s-14.65-4.16-22.04-4.19s-14.89,2.32-22.04,3.14s-13.92,0.11-21.07,8.2
			s-14.65,24.98-18.4,33.43l-3.75,8.45C7.45,281.76,7.45,223.78,7.45,223.78z"/>
		<path class="st13" d="M7.45,281.71l3.75-8.45c3.75-8.45,11.26-25.34,18.4-33.43s13.92-7.38,21.07-8.2s14.65-3.17,22.04-3.14
			s14.65,2.45,22.04,4.19s14.89,2.81,22.28,4.16s14.65,3,22.04-0.87c7.39-3.86,14.89-13.23,22.4-16.67s15.01-0.95,22.4,2.95
			c7.39,3.91,14.65,9.23,22.04,12.83s14.89,5.46,22.28,7.4s14.65,3.96,22.04,7.78s14.89,9.43,22.4,5.57s15.01-17.2,22.16-43.46
			s13.92-65.43,21.07-68.99c7.14-3.56,14.65,28.49,22.04,50.4c7.39,21.92,14.65,33.7,22.04,29.93s14.89-23.1,22.28-22.85
			c7.39,0.26,14.65,20.1,22.04,30.28c7.39,10.19,14.89,10.72,22.4,12.63c7.51,1.91,15.01,5.19,22.4,6.43
			c7.39,1.23,14.65,0.41,22.04-1.73s14.89-5.6,22.28-4.76c7.39,0.84,14.65,5.99,22.04,7.97s14.89,0.78,22.4-1.53
			s15.01-5.73,22.16-7.87c7.14-2.14,13.92-3.01,21.07-3.24c7.14-0.23,14.65,0.17,22.04,2.76c7.39,2.6,14.65,7.39,22.04,7.07
			s14.89-5.76,22.28-10.85s14.65-9.84,22.04-10.38c7.39-0.53,14.89,3.15,22.4,3.25s15.01-3.38,22.4-2.57s14.65,5.91,18.28,8.47
			l3.63,2.55v2.8l-3.63-2.51c-3.63-2.51-10.9-7.52-18.28-8.09c-7.39-0.57-14.89,3.32-22.4,3.28c-7.51-0.03-15.01-3.98-22.4-3.5
			c-7.39,0.49-14.65,5.42-22.04,10.53c-7.39,5.12-14.89,10.42-22.28,10.76s-14.65-4.27-22.04-6.76c-7.39-2.49-14.89-2.84-22.04-2.74
			c-7.14,0.1-13.92,0.65-21.07,2.64c-7.14,1.99-14.65,5.4-22.16,7.49c-7.51,2.09-15.01,2.84-22.4,0.64s-14.65-7.35-22.04-7.81
			c-7.39-0.47-14.89,3.75-22.28,6.43c-7.39,2.67-14.65,3.81-22.04,2.82s-14.89-4.09-22.4-6.05c-7.51-1.95-15.01-2.75-22.4-13.01
			c-7.39-10.25-14.65-29.96-22.04-30.42s-14.89,18.34-22.28,22.14c-7.39,3.8-14.65-7.41-22.04-29.17s-14.89-54.08-22.04-50.87
			s-13.92,41.94-21.07,67.77s-14.65,38.77-22.16,42.46c-7.51,3.68-15.01-1.89-22.4-5.08c-7.39-3.2-14.65-4.02-22.04-4.43
			c-7.39-0.41-14.89-0.41-22.28-2.96s-14.65-7.66-22.04-12.85c-7.39-5.19-14.89-10.48-22.4-8.63s-15.01,10.81-22.4,14.54
			s-14.65,2.22-22.04,1.02s-14.89-2.09-22.28-3.94s-14.65-4.67-22.04-4.95s-14.89,1.99-22.04,2.56s-13.92-0.53-21.07,7.22
			s-14.65,24.38-18.4,32.69L7.45,281.71z"/>
		<path class="st14" d="M7.45,281.71l3.75-8.31c3.75-8.31,11.26-24.94,18.4-32.69s13.92-6.65,21.07-7.22s14.65-2.84,22.04-2.56
			s14.65,3.1,22.04,4.95s14.89,2.74,22.28,3.94s14.65,2.71,22.04-1.02c7.39-3.73,14.89-12.7,22.4-14.54s15.01,3.44,22.4,8.63
			s14.65,10.3,22.04,12.85s14.89,2.55,22.28,2.96s14.65,1.23,22.04,4.43c7.39,3.2,14.89,8.77,22.4,5.08
			c7.51-3.68,15.01-16.62,22.16-42.46s13.92-64.56,21.07-67.77s14.65,29.11,22.04,50.87s14.65,32.97,22.04,29.17
			s14.89-22.59,22.28-22.14c7.39,0.45,14.65,20.16,22.04,30.42c7.39,10.25,14.89,11.05,22.4,13.01c7.51,1.95,15.01,5.06,22.4,6.05
			c7.39,0.99,14.65-0.14,22.04-2.82c7.39-2.67,14.89-6.89,22.28-6.43c7.39,0.47,14.65,5.62,22.04,7.81
			c7.39,2.2,14.89,1.44,22.4-0.64c7.51-2.09,15.01-5.5,22.16-7.49c7.14-1.99,13.92-2.54,21.07-2.64c7.14-0.1,14.65,0.26,22.04,2.74
			c7.39,2.49,14.65,7.1,22.04,6.76s14.89-5.65,22.28-10.76c7.39-5.12,14.65-10.04,22.04-10.53c7.39-0.49,14.89,3.46,22.4,3.5
			c7.51,0.03,15.01-3.85,22.4-3.28s14.65,5.58,18.28,8.09l3.63,2.51v3.2l-3.63-2.35c-3.63-2.35-10.9-7.06-18.28-7.93
			c-7.39-0.88-14.89,2.08-22.4,1.55c-7.51-0.52-15.01-4.52-22.4-3.54s-14.65,6.92-22.04,13.64c-7.39,6.71-14.89,14.19-22.28,15.4
			s-14.65-3.85-22.04-7.07c-7.39-3.22-14.89-4.59-22.04-5.45c-7.14-0.85-13.92-1.19-21.07,0.31c-7.14,1.5-14.65,4.83-22.16,6.67
			c-7.51,1.84-15.01,2.2-22.4-0.18c-7.39-2.37-14.65-7.48-22.04-7.59s-14.89,4.77-22.28,7.62c-7.39,2.85-14.65,3.67-22.04,2.42
			s-14.89-4.58-22.4-7c-7.51-2.42-15.01-3.93-22.4-14.36c-7.39-10.43-14.65-29.79-22.04-29.35c-7.39,0.43-14.89,20.65-22.28,26.73
			c-7.39,6.08-14.65-1.98-22.04-23.03s-14.89-55.1-22.04-52.76c-7.14,2.34-13.92,41.07-21.07,65.71s-14.65,35.18-22.16,37.4
			s-15.01-3.88-22.4-7.28c-7.39-3.4-14.65-4.08-22.04-4.12c-7.39-0.03-14.89,0.59-22.28-1.76s-14.65-7.68-22.04-13.29
			c-7.39-5.62-14.89-11.52-22.4-9.85c-7.51,1.66-15.01,10.9-22.4,14.8s-14.65,2.49-22.04,1.82s-14.89-0.58-22.28-2.21
			s-14.65-4.98-22.04-5.17s-14.89,2.79-22.04,3.05s-13.92-2.18-21.07,4.65c-7.14,6.82-14.65,22.92-18.4,30.96l-3.75,8.05
			C7.45,281.87,7.45,281.71,7.45,281.71z"/>
		<path class="st15" d="M7.45,281.84l3.75-8.05c3.75-8.05,11.26-24.14,18.4-30.96s13.92-4.38,21.07-4.65s14.65-3.24,22.04-3.05
			s14.65,3.54,22.04,5.17s14.89,1.54,22.28,2.21s14.65,2.09,22.04-1.82s14.89-13.14,22.4-14.8s15.01,4.24,22.4,9.85
			c7.39,5.62,14.65,10.94,22.04,13.29c7.39,2.35,14.89,1.73,22.28,1.76s14.65,0.72,22.04,4.12s14.89,9.5,22.4,7.28
			s15.01-12.76,22.16-37.4s13.92-63.37,21.07-65.71c7.14-2.34,14.65,31.71,22.04,52.76s14.65,29.11,22.04,23.03
			s14.89-26.3,22.28-26.73c7.39-0.43,14.65,18.92,22.04,29.35s14.89,11.94,22.4,14.36c7.51,2.42,15.01,5.75,22.4,7
			c7.39,1.25,14.65,0.43,22.04-2.42s14.89-7.73,22.28-7.62c7.39,0.11,14.65,5.22,22.04,7.59s14.89,2.02,22.4,0.18
			s15.01-5.17,22.16-6.67c7.14-1.5,13.92-1.17,21.07-0.31c7.14,0.85,14.65,2.23,22.04,5.45c7.39,3.22,14.65,8.28,22.04,7.07
			c7.39-1.21,14.89-8.69,22.28-15.4s14.65-12.66,22.04-13.64s14.89,3.02,22.4,3.54c7.51,0.52,15.01-2.43,22.4-1.55
			s14.65,5.58,18.28,7.93l3.63,2.35v11.59l-3.63-3.93c-3.63-3.93-10.9-11.79-18.28-13.73c-7.39-1.94-14.89,2.03-22.4,2.46
			s-15.01-2.67-22.4-1.39s-14.65,6.97-22.04,12.64c-7.39,5.67-14.89,11.33-22.28,12.27s-14.65-2.83-22.04-5.96
			c-7.39-3.13-14.89-5.62-22.04-7.16c-7.14-1.54-13.92-2.14-21.07,0.67c-7.14,2.81-14.65,9.02-22.16,10.69
			c-7.51,1.66-15.01-1.22-22.4-0.71s-14.65,4.42-22.04,7.08c-7.39,2.66-14.89,4.08-22.28,4.58c-7.39,0.5-14.65,0.08-22.04-3.22
			s-14.89-9.47-22.4-12.84c-7.51-3.37-15.01-3.95-22.4-14.63c-7.39-10.68-14.65-31.45-22.04-32.02s-14.89,19.08-22.28,24.8
			c-7.39,5.73-14.65-2.46-22.04-23.38s-14.89-54.57-22.04-52.14s-13.92,40.94-21.07,65.86s-14.65,36.27-22.16,38.37
			c-7.51,2.11-15.01-5.02-22.4-8.37c-7.39-3.35-14.65-2.93-22.04-2.63c-7.39,0.3-14.89,0.48-22.28-2.16s-14.65-8.1-22.04-13.21
			c-7.39-5.1-14.89-9.85-22.4-7.68s-15.01,11.27-22.4,15.91s-14.65,4.82-22.04,3.95s-14.89-2.77-22.28-2.96s-14.65,1.34-22.04,4.15
			s-14.89,6.89-22.04,6.96c-7.14,0.07-13.92-3.88-21.07-0.03c-7.14,3.85-14.65,15.5-18.4,21.33l-3.75,5.83
			C7.45,286.34,7.45,281.84,7.45,281.84z"/>
		<path class="st16" d="M7.45,286.37l3.75-5.83c3.75-5.83,11.26-17.48,18.4-21.33c7.14-3.85,13.92,0.1,21.07,0.03
			c7.14-0.07,14.65-4.15,22.04-6.96s14.65-4.34,22.04-4.15s14.89,2.1,22.28,2.96s14.65,0.69,22.04-3.95s14.89-13.74,22.4-15.91
			s15.01,2.57,22.4,7.68c7.39,5.1,14.65,10.56,22.04,13.21s14.89,2.46,22.28,2.16s14.65-0.72,22.04,2.63s14.89,10.48,22.4,8.37
			c7.51-2.11,15.01-13.45,22.16-38.37s13.92-63.43,21.07-65.86s14.65,31.22,22.04,52.14s14.65,29.11,22.04,23.38
			s14.89-25.37,22.28-24.8c7.39,0.57,14.65,21.34,22.04,32.02s14.89,11.25,22.4,14.63c7.51,3.37,15.01,9.54,22.4,12.84
			c7.39,3.3,14.65,3.72,22.04,3.22s14.89-1.92,22.28-4.58c7.39-2.66,14.65-6.57,22.04-7.08c7.39-0.51,14.89,2.37,22.4,0.71
			s15.01-7.88,22.16-10.69c7.14-2.81,13.92-2.21,21.07-0.67c7.14,1.54,14.65,4.03,22.04,7.16c7.39,3.13,14.65,6.9,22.04,5.96
			s14.89-6.6,22.28-12.27s14.65-11.35,22.04-12.64s14.89,1.82,22.4,1.39s15.01-4.41,22.4-2.46c7.39,1.94,14.65,9.8,18.28,13.73
			l3.63,3.93v3.46l-3.63-3.71c-3.63-3.71-10.9-11.12-18.28-12.31c-7.39-1.19-14.89,3.85-22.4,10.79s-15.01,15.77-22.4,16.61
			s-14.65-6.3-22.04-6.96c-7.39-0.65-14.89,5.18-22.28,5.82c-7.39,0.63-14.65-3.94-22.04-7.56c-7.39-3.62-14.89-6.28-22.04-5.32
			c-7.14,0.97-13.92,5.56-21.07,8.5c-7.14,2.94-14.65,4.23-22.16,3.36c-7.51-0.87-15.01-3.88-22.4-3.44s-14.65,4.35-22.04,7.1
			s-14.89,4.35-22.28,4.69c-7.39,0.34-14.65-0.57-22.04-3.57c-7.39-3.01-14.89-8.11-22.4-9.6c-7.51-1.49-15.01,0.64-22.4,9.72
			c-7.39,9.08-14.65,25.1-22.04,23.14s-14.89-21.92-22.28-35.97c-7.39-14.05-14.65-22.19-22.04-42.51s-14.89-52.81-22.04-50.45
			s-13.92,39.58-21.07,64.42s-14.65,37.29-22.16,39.53s-15.01-5.73-22.4-9.79c-7.39-4.06-14.65-4.22-22.04-4.32
			c-7.39-0.1-14.89-0.14-22.28,1.79s-14.65,5.84-22.04,1.18c-7.39-4.66-14.89-17.89-22.4-20.37s-15.01,5.77-22.4,10.1
			s-14.65,4.73-22.04,6.24s-14.89,4.13-22.28,4.27c-7.39,0.14-14.65-2.19-22.04-0.71s-14.89,6.76-22.04,11.75
			s-13.92,9.7-21.07,15.53s-14.65,12.77-18.4,16.25l-3.75,3.47C7.45,308.1,7.45,286.37,7.45,286.37z"/>
		<path class="st17" d="M7.45,308.08l3.75-3.47c3.75-3.47,11.26-10.42,18.4-16.25s13.92-10.53,21.07-15.53s14.65-10.28,22.04-11.75
			s14.65,0.85,22.04,0.71s14.89-2.76,22.28-4.27s14.65-1.91,22.04-6.24s14.89-12.58,22.4-10.1s15.01,15.71,22.4,20.37
			s14.65,0.75,22.04-1.18s14.89-1.89,22.28-1.79s14.65,0.26,22.04,4.32s14.89,12.03,22.4,9.79c7.51-2.24,15.01-14.69,22.16-39.53
			s13.92-62.06,21.07-64.42s14.65,30.13,22.04,50.45s14.65,28.46,22.04,42.51c7.39,14.05,14.89,34,22.28,35.97
			c7.39,1.96,14.65-14.06,22.04-23.14s14.89-11.21,22.4-9.72c7.51,1.49,15.01,6.59,22.4,9.6c7.39,3.01,14.65,3.92,22.04,3.57
			c7.39-0.34,14.89-1.94,22.28-4.69c7.39-2.75,14.65-6.66,22.04-7.1s14.89,2.57,22.4,3.44s15.01-0.42,22.16-3.36
			c7.14-2.94,13.92-7.54,21.07-8.5c7.14-0.97,14.65,1.7,22.04,5.32c7.39,3.62,14.65,8.19,22.04,7.56
			c7.39-0.63,14.89-6.47,22.28-5.82s14.65,7.8,22.04,6.96s14.89-9.68,22.4-16.61c7.51-6.94,15.01-11.97,22.4-10.79
			c7.39,1.19,14.65,8.6,18.28,12.31l3.63,3.71v0.8l-3.63-3.37c-3.63-3.37-10.9-10.12-18.28-8.78c-7.39,1.34-14.89,10.78-22.4,17.42
			c-7.51,6.65-15.01,10.51-22.4,9.55s-14.65-6.73-22.04-7.34c-7.39-0.61-14.89,3.94-22.28,4.13s-14.65-3.98-22.04-7.36
			c-7.39-3.37-14.89-5.95-22.04-5.14c-7.14,0.81-13.92,5-21.07,7.75c-7.14,2.74-14.65,4.03-22.16,3.05
			c-7.51-0.98-15.01-4.22-22.4-3.77c-7.39,0.44-14.65,4.57-22.04,7.44c-7.39,2.86-14.89,4.46-22.28,4.83
			c-7.39,0.37-14.65-0.5-22.04-3.13s-14.89-7.02-22.4-8.09c-7.51-1.07-15.01,1.2-22.4,10.94c-7.39,9.74-14.65,26.97-22.04,25.18
			s-14.89-22.58-22.28-26.67c-7.39-4.08-14.65,8.54-22.04,32.33c-7.39,23.78-14.89,58.72-22.04,55.49s-13.92-44.62-21.07-64.62
			s-14.65-18.6-22.16-21.93s-15.01-11.39-22.4-15.54c-7.39-4.15-14.65-4.39-22.04-4.21c-7.39,0.19-14.89,0.81-22.28,2.76
			s-14.65,5.24-22.04,0.27c-7.39-4.97-14.89-18.2-22.4-20.64s-15.01,5.9-22.4,10.43c-7.39,4.53-14.65,5.24-22.04,6.75
			s-14.89,3.82-22.28,3.83c-7.39,0.01-14.65-2.27-22.04-0.78c-7.39,1.5-14.89,6.78-22.04,11.62c-7.14,4.84-13.92,9.23-21.07,14.9
			s-14.65,12.62-18.4,16.09L7.45,308.08z"/>
		<path class="st18" d="M7.45,308.08l3.75-3.47c3.75-3.47,11.26-10.42,18.4-16.09s13.92-10.07,21.07-14.9
			c7.14-4.84,14.65-10.12,22.04-11.62s14.65,0.79,22.04,0.78s14.89-2.32,22.28-3.83c7.39-1.51,14.65-2.22,22.04-6.75
			c7.39-4.53,14.89-12.87,22.4-10.43s15.01,15.67,22.4,20.64s14.65,1.69,22.04-0.27c7.39-1.95,14.89-2.57,22.28-2.76
			s14.65,0.06,22.04,4.21s14.89,12.21,22.4,15.54c7.51,3.33,15.01,1.93,22.16,21.93s13.92,61.39,21.07,64.62
			s14.65-31.71,22.04-55.49s14.65-36.41,22.04-32.33c7.39,4.08,14.89,24.88,22.28,26.67c7.39,1.79,14.65-15.44,22.04-25.18
			s14.89-12.01,22.4-10.94c7.51,1.07,15.01,5.46,22.4,8.09c7.39,2.63,14.65,3.5,22.04,3.13s14.89-1.96,22.28-4.83
			c7.39-2.86,14.65-6.99,22.04-7.44c7.39-0.44,14.89,2.8,22.4,3.77c7.51,0.98,15.01-0.31,22.16-3.05
			c7.14-2.74,13.92-6.94,21.07-7.75c7.14-0.81,14.65,1.76,22.04,5.14c7.39,3.37,14.65,7.55,22.04,7.36
			c7.39-0.19,14.89-4.74,22.28-4.13s14.65,6.38,22.04,7.34s14.89-2.91,22.4-9.55c7.51-6.65,15.01-16.08,22.4-17.42
			s14.65,5.4,18.28,8.78l3.63,3.37v5.59l-3.63-3.62c-3.63-3.62-10.9-10.85-18.28-9.38c-7.39,1.48-14.89,11.66-22.4,18.42
			s-15.01,10.09-22.4,8.67c-7.39-1.42-14.65-7.59-22.04-7.89c-7.39-0.3-14.89,5.27-22.28,5.7c-7.39,0.43-14.65-4.27-22.04-7.87
			c-7.39-3.6-14.89-6.08-22.04-5.23c-7.14,0.85-13.92,5.05-21.07,9.63c-7.14,4.58-14.65,9.55-22.16,8.07
			c-7.51-1.49-15.01-9.43-22.4-10.9c-7.39-1.46-14.65,3.55-22.04,7.12s-14.89,5.7-22.28,6.43c-7.39,0.72-14.65,0.03-22.04-1.95
			c-7.39-1.99-14.89-5.27-22.4-6.71c-7.51-1.44-15.01-1.04-22.4,7.92c-7.39,8.97-14.65,26.5-22.04,24.74s-14.89-22.83-22.28-26.42
			c-7.39-3.6-14.65,10.28-22.04,34.32c-7.39,24.05-14.89,58.27-22.04,54.62s-13.92-45.18-21.07-63.84s-14.65-14.47-22.16-18.2
			s-15.01-15.38-22.4-20.22c-7.39-4.84-14.65-2.86-22.04-0.23c-7.39,2.63-14.89,5.91-22.28,9.93s-14.65,8.77-22.04,11.92
			c-7.39,3.15-14.89,4.71-22.4-0.78c-7.51-5.48-15.01-18-22.4-23.68s-14.65-4.53-22.04-2.46c-7.39,2.06-14.89,5.04-22.28,4.81
			s-14.65-3.67-22.04-2.66s-14.89,6.47-22.04,11.11c-7.14,4.64-13.92,8.46-21.07,13.44c-7.14,4.98-14.65,11.13-18.4,14.2l-3.75,3.07
			C7.45,308.89,7.45,308.08,7.45,308.08z"/>
		<path class="st19" d="M7.45,308.88l3.75-3.07c3.75-3.07,11.26-9.22,18.4-14.2s13.92-8.8,21.07-13.44
			c7.14-4.64,14.65-10.1,22.04-11.11s14.65,2.43,22.04,2.66s14.89-2.74,22.28-4.81c7.39-2.06,14.65-3.22,22.04,2.46
			s14.89,18.2,22.4,23.68c7.51,5.48,15.01,3.93,22.4,0.78s14.65-7.9,22.04-11.92s14.89-7.3,22.28-9.93s14.65-4.61,22.04,0.23
			s14.89,16.49,22.4,20.22c7.51,3.73,15.01-0.47,22.16,18.2s13.92,60.19,21.07,63.84s14.65-30.57,22.04-54.62
			s14.65-37.92,22.04-34.32s14.89,24.66,22.28,26.42c7.39,1.76,14.65-15.77,22.04-24.74s14.89-9.37,22.4-7.92
			c7.51,1.44,15.01,4.73,22.4,6.71c7.39,1.99,14.65,2.67,22.04,1.95s14.89-2.85,22.28-6.43c7.39-3.57,14.65-8.59,22.04-7.12
			c7.39,1.46,14.89,9.41,22.4,10.9s15.01-3.48,22.16-8.07c7.14-4.58,13.92-8.78,21.07-9.63c7.14-0.85,14.65,1.63,22.04,5.23
			c7.39,3.6,14.65,8.3,22.04,7.87c7.39-0.43,14.89-6,22.28-5.7s14.65,6.47,22.04,7.89c7.39,1.42,14.89-1.91,22.4-8.67
			s15.01-16.95,22.4-18.42c7.39-1.48,14.65,5.76,18.28,9.38l3.63,3.62v7.72l-3.63-3.75c-3.63-3.75-10.9-11.25-18.28-10.07
			c-7.39,1.19-14.89,11.06-22.4,17.76c-7.51,6.69-15.01,10.2-22.4,9.11c-7.39-1.09-14.65-6.77-22.04-6.65
			c-7.39,0.12-14.89,6.05-22.28,6.04c-7.39-0.01-14.65-5.96-22.04-10.13c-7.39-4.17-14.89-6.57-22.04-6.09
			c-7.14,0.48-13.92,3.83-21.07,8.1c-7.14,4.27-14.65,9.47-22.16,8.13c-7.51-1.33-15.01-9.19-22.4-10.88s-14.65,2.8-22.04,7.7
			c-7.39,4.91-14.89,10.23-22.28,11.75c-7.39,1.52-14.65-0.77-22.04-3.64c-7.39-2.87-14.89-6.34-22.4-8.27
			c-7.51-1.93-15.01-2.33-22.4,6.35c-7.39,8.68-14.65,26.43-22.04,24.63c-7.39-1.81-14.89-23.18-22.28-27.04
			c-7.39-3.86-14.65,9.79-22.04,33.79s-14.89,58.36-22.04,55.51c-7.14-2.85-13.92-42.91-21.07-61.91
			c-7.14-19-14.65-16.93-22.16-21.57s-15.01-15.98-22.4-20.44c-7.39-4.46-14.65-2.04-22.04,0.65c-7.39,2.7-14.89,5.67-22.28,9.73
			s-14.65,9.21-22.04,12.36c-7.39,3.15-14.89,4.31-22.4-1.62s-15.01-18.93-22.4-24.64c-7.39-5.7-14.65-4.11-22.04-1.55
			c-7.39,2.55-14.89,6.06-22.28,5.87s-14.65-4.07-22.04-3.33c-7.39,0.74-14.89,6.11-22.04,10.27s-13.92,7.08-21.07,11.57
			s-14.65,10.55-18.4,13.58L7.45,308.88z"/>
		<path class="st20" d="M7.45,308.88l3.75-3.03c3.75-3.03,11.26-9.09,18.4-13.58s13.92-7.42,21.07-11.57s14.65-9.52,22.04-10.27
			c7.39-0.74,14.65,3.14,22.04,3.33c7.39,0.19,14.89-3.32,22.28-5.87s14.65-4.15,22.04,1.55c7.39,5.7,14.89,18.71,22.4,24.64
			s15.01,4.77,22.4,1.62s14.65-8.3,22.04-12.36s14.89-7.04,22.28-9.73c7.39-2.7,14.65-5.12,22.04-0.65
			c7.39,4.46,14.89,15.8,22.4,20.44s15.01,2.57,22.16,21.57c7.14,19,13.92,59.06,21.07,61.91c7.14,2.85,14.65-31.51,22.04-55.51
			s14.65-37.65,22.04-33.79s14.89,25.24,22.28,27.04c7.39,1.81,14.65-15.95,22.04-24.63s14.89-8.28,22.4-6.35
			c7.51,1.93,15.01,5.39,22.4,8.27c7.39,2.87,14.65,5.16,22.04,3.64s14.89-6.85,22.28-11.75c7.39-4.91,14.65-9.39,22.04-7.7
			s14.89,9.54,22.4,10.88c7.51,1.33,15.01-3.86,22.16-8.13c7.14-4.27,13.92-7.62,21.07-8.1c7.14-0.48,14.65,1.92,22.04,6.09
			c7.39,4.17,14.65,10.12,22.04,10.13c7.39,0.01,14.89-5.91,22.28-6.04c7.39-0.12,14.65,5.56,22.04,6.65
			c7.39,1.09,14.89-2.42,22.4-9.11c7.51-6.69,15.01-16.57,22.4-17.76s14.65,6.31,18.28,10.07l3.63,3.75v4.26l-3.63,2.62
			c-3.63,2.62-10.9,7.86-18.28,8.98c-7.39,1.12-14.89-1.88-22.4-1.64c-7.51,0.23-15.01,3.7-22.4,2.7s-14.65-6.46-22.04-6
			c-7.39,0.45-14.89,6.82-22.28,7.12s-14.65-5.47-22.04-8.33c-7.39-2.86-14.89-2.82-22.04-3.12c-7.14-0.3-13.92-0.94-21.07,1.42
			c-7.14,2.36-14.65,7.73-22.16,6.54c-7.51-1.2-15.01-8.97-22.4-10.7s-14.65,2.57-22.04,7.48c-7.39,4.9-14.89,10.41-22.28,12.6
			c-7.39,2.19-14.65,1.05-22.04-1.71c-7.39-2.76-14.89-7.16-22.4-9.44c-7.51-2.29-15.01-2.46-22.4,6.24
			c-7.39,8.7-14.65,26.28-22.04,24.4s-14.89-23.2-22.28-27c-7.39-3.8-14.65,9.94-22.04,33.97s-14.89,58.34-22.04,55.69
			c-7.14-2.65-13.92-42.27-21.07-61.58s-14.65-18.31-22.16-23.37s-15.01-16.18-22.4-20.44c-7.39-4.26-14.65-1.66-22.04,1.39
			c-7.39,3.05-14.89,6.56-22.28,10.71s-14.65,8.94-22.04,12.01c-7.39,3.06-14.89,4.39-22.4-1.6s-15.01-19.31-22.4-25.08
			s-14.65-4-22.04-1.22s-14.89,6.55-22.28,7.85c-7.39,1.3-14.65,0.12-22.04,1.27s-14.89,4.61-22.04,7.65s-13.92,5.66-21.07,9.22
			c-7.14,3.56-14.65,8.07-18.4,10.32l-3.75,2.25C7.45,309.99,7.45,308.88,7.45,308.88z"/>
		<path class="st21" d="M7.45,309.94l3.75-2.25c3.75-2.25,11.26-6.76,18.4-10.32s13.92-6.18,21.07-9.22s14.65-6.5,22.04-7.65
			s14.65,0.03,22.04-1.27s14.89-5.07,22.28-7.85s14.65-4.55,22.04,1.22s14.89,19.09,22.4,25.08s15.01,4.66,22.4,1.6
			s14.65-7.86,22.04-12.01s14.89-7.66,22.28-10.71s14.65-5.65,22.04-1.39c7.39,4.26,14.89,15.38,22.4,20.44
			c7.51,5.06,15.01,4.06,22.16,23.37s13.92,58.93,21.07,61.58c7.14,2.65,14.65-31.66,22.04-55.69s14.65-37.76,22.04-33.97
			c7.39,3.8,14.89,25.12,22.28,27c7.39,1.88,14.65-15.7,22.04-24.4c7.39-8.7,14.89-8.52,22.4-6.24c7.51,2.29,15.01,6.68,22.4,9.44
			c7.39,2.76,14.65,3.9,22.04,1.71s14.89-7.69,22.28-12.6c7.39-4.91,14.65-9.21,22.04-7.48c7.39,1.73,14.89,9.5,22.4,10.7
			s15.01-4.17,22.16-6.54c7.14-2.36,13.92-1.72,21.07-1.42c7.14,0.3,14.65,0.26,22.04,3.12c7.39,2.86,14.65,8.63,22.04,8.33
			c7.39-0.3,14.89-6.67,22.28-7.12c7.39-0.45,14.65,5,22.04,6s14.89-2.46,22.4-2.7c7.51-0.23,15.01,2.76,22.4,1.64
			s14.65-6.36,18.28-8.98l3.63-2.62v2.53l-3.63,2.24c-3.63,2.24-10.9,6.72-18.28,7.67c-7.39,0.94-14.89-1.65-22.4-1.29
			c-7.51,0.37-15.01,3.7-22.4,2.65c-7.39-1.04-14.65-6.46-22.04-5.78c-7.39,0.68-14.89,7.45-22.28,7.68
			c-7.39,0.23-14.65-6.07-22.04-9.04c-7.39-2.97-14.89-2.62-22.04-2.76c-7.14-0.14-13.92-0.79-21.07,1.42
			c-7.14,2.21-14.65,7.27-22.16,5.85c-7.51-1.42-15.01-9.32-22.4-11.05c-7.39-1.73-14.65,2.71-22.04,7.68s-14.89,10.48-22.28,12.91
			c-7.39,2.43-14.65,1.79-22.04-0.87c-7.39-2.65-14.89-7.31-22.4-9.91c-7.51-2.6-15.01-3.13-22.4,5.55
			c-7.39,8.68-14.65,26.57-22.04,25.16s-14.89-22.12-22.28-25.98c-7.39-3.86-14.65,9.12-22.04,32.81s-14.89,58.09-22.04,55.55
			s-13.92-42.03-21.07-61.36s-14.65-18.51-22.16-23.68c-7.51-5.17-15.01-16.34-22.4-20.64c-7.39-4.31-14.65-1.75-22.04,1.28
			c-7.39,3.03-14.89,6.54-22.28,11s-14.65,9.88-22.04,13.18c-7.39,3.31-14.89,4.51-22.4,0.58s-15.01-12.98-22.4-17.64
			s-14.65-4.93-22.04-2.93s-14.89,6.26-22.28,6.38s-14.65-3.9-22.04-2.75s-14.89,7.45-22.04,11.24c-7.14,3.8-13.92,5.08-21.07,7
			c-7.14,1.92-14.65,4.47-18.4,5.75l-3.75,1.28C7.45,310.45,7.45,309.94,7.45,309.94z"/>
		<path class="st22" d="M7.45,310.48l3.75-1.28c3.75-1.28,11.26-3.83,18.4-5.75s13.92-3.21,21.07-7c7.14-3.8,14.65-10.1,22.04-11.24
			s14.65,2.87,22.04,2.75s14.89-4.38,22.28-6.38s14.65-1.73,22.04,2.93s14.89,13.72,22.4,17.64s15.01,2.73,22.4-0.58
			s14.65-8.72,22.04-13.18s14.89-7.97,22.28-11s14.65-5.58,22.04-1.28c7.39,4.31,14.89,15.47,22.4,20.64
			c7.51,5.17,15.01,4.35,22.16,23.68s13.92,58.82,21.07,61.36s14.65-31.86,22.04-55.55s14.65-36.68,22.04-32.81
			c7.39,3.86,14.89,24.57,22.28,25.98c7.39,1.41,14.65-16.48,22.04-25.16s14.89-8.15,22.4-5.55c7.51,2.6,15.01,7.26,22.4,9.91
			c7.39,2.65,14.65,3.3,22.04,0.87s14.89-7.93,22.28-12.91c7.39-4.97,14.65-9.41,22.04-7.68s14.89,9.63,22.4,11.05
			c7.51,1.42,15.01-3.64,22.16-5.85c7.14-2.21,13.92-1.56,21.07-1.42c7.14,0.14,14.65-0.21,22.04,2.76
			c7.39,2.97,14.65,9.28,22.04,9.04c7.39-0.23,14.89-7,22.28-7.68s14.65,4.74,22.04,5.78c7.39,1.04,14.89-2.29,22.4-2.65
			c7.51-0.37,15.01,2.23,22.4,1.29s14.65-5.43,18.28-7.67l3.63-2.24v20.64l-3.63,1.75c-3.63,1.75-10.9,5.26-18.28,5.29
			c-7.39,0.03-14.89-3.41-22.4-3.33c-7.51,0.08-15.01,3.67-22.4,3.52c-7.39-0.16-14.65-4.06-22.04-3.18
			c-7.39,0.88-14.89,6.54-22.28,6.59c-7.39,0.06-14.65-5.49-22.04-8.33c-7.39-2.84-14.89-2.97-22.04-3.78
			c-7.14-0.81-13.92-2.3-21.07-0.84c-7.14,1.45-14.65,5.85-22.16,3.23c-7.51-2.62-15.01-12.25-22.4-14.14s-14.65,3.97-22.04,10.72
			s-14.89,14.38-22.28,16.28c-7.39,1.9-14.65-1.94-22.04-5.99s-14.89-8.31-22.4-10.53c-7.51-2.22-15.01-2.4-22.4,7.3
			c-7.39,9.7-14.65,29.27-22.04,29.31c-7.39,0.03-14.89-19.48-22.28-22.67c-7.39-3.2-14.65,9.92-22.04,32.57
			s-14.89,54.83-22.04,50.78s-13.92-44.33-21.07-64.75s-14.65-20.97-22.16-25.04c-7.51-4.06-15.01-11.63-22.4-14.4
			c-7.39-2.77-14.65-0.75-22.04,1.81c-7.39,2.56-14.89,5.67-22.28,9.49c-7.39,3.82-14.65,8.35-22.04,11.74
			c-7.39,3.4-14.89,5.66-22.4,2.13s-15.01-12.85-22.4-16.73s-14.65-2.33-22.04-1.04s-14.89,2.31-22.28,4.81s-14.65,6.47-22.04,8.66
			s-14.89,2.59-22.04,2.99c-7.14,0.4-13.92,0.8-21.07-0.06s-14.65-2.96-18.4-4.02l-3.75-1.05C7.45,311.03,7.45,310.48,7.45,310.48z"
			/>
	</g>
	<g id="annotations_1_">
		<text transform="matrix(0.6016 -0.7988 0.7988 0.6016 14.12 292.9286)" class="st6 st7 st10">Muslim </text>
		<text transform="matrix(0.6016 -0.7988 0.7988 0.6016 32.5077 283.9501)" class="st6 st7 st10">bans</text>
		<text transform="matrix(1 0 0 1 359.2876 247.5781)" class="st6 st7 st10">Immigrant </text>
		<text transform="matrix(1 0 0 1 368.6075 257.5781)" class="st6 st7 st10">family</text>
		<text transform="matrix(1 0 0 1 364.6176 267.578)" class="st6 st7 st10">separation</text>
		<text transform="matrix(1 0 0 1 137.6495 257.7784)" class="st6 st7 st10">   Unite </text>
		<text transform="matrix(1 0 0 1 144.6495 266.7784)" class="st6 st7 st10">the Right </text>
		<text transform="matrix(1 0 0 1 139.6495 276.3779)" class="st6 st7 st10">    (Charlottesville)</text>
		<text transform="matrix(1 0 0 1 6.1932 230.5605)" class="st6 st7 st23"> Women’s </text>
		<text transform="matrix(1 0 0 1 8.1932 239.5605)" class="st6 st7 st23">March</text>
		<text transform="matrix(1 0 0 1 52.1675 302.0346)" class="st6 st7 st10">March for </text>
		<text transform="matrix(1 0 0 1 43.1675 311.0346)" class="st6 st7 st10">Science</text>
		<text transform="matrix(1 0 0 1 38.075 248.2697)" class="st24 st7 st10">Tax March</text>
		<text transform="matrix(1 -4.783629e-03 7.326383e-03 1 466.4264 263.8907)" class="st24 st7 st23">Protect</text>
		<text transform="matrix(1 -4.783629e-03 7.326383e-03 1 462.5143 271.8907)" class="st24 st7 st23">Mueller</text>
		<text transform="matrix(1 0 0 1 291.239 253.7935)" class="st6 st7 st10">March For Our </text>
		<text transform="matrix(1 0 0 1 307.1591 264.7935)" class="st6 st7 st10">Lives &amp;</text>
		<text transform="matrix(1 0 0 1 287.889 275.7935)" class="st6 st7 st10">National School </text>
		<text transform="matrix(1 0 0 1 304.9091 286.7935)" class="st6 st7 st10">Walkout</text>
		<text transform="matrix(1 0 0 1 428.8492 152.1293)" class="st11 st25 st10">Supreme Court</text>
		<text transform="matrix(1 0 0 1 428.8492 163.1293)" class="st12 st25 st10">women’s rights</text>
		<text transform="matrix(1 0 0 1 428.8492 174.1293)" class="st7 st10">Kavanaugh </text>
		<text transform="matrix(1 0 0 1 428.8492 185.1293)" class="st7 st10">nomination</text>
		<path class="st26" d="M456.45,251.34c-2.47,0-4.47-8.47-4.47-18.92c0-3.29,0.2-6.39,0.55-9.09c0.76-5.86,2.23-9.83,3.92-9.83
			c1.37,0,2.58,2.59,3.4,6.67"/>
		<line class="st26" x1="456.45" y1="213.33" x2="456.45" y2="190.16"/>
		<rect x="226.1" y="150.04" class="st27" width="69.06" height="33.46"/>
		<rect x="504.18" y="168.4" class="st27" width="73.77" height="38.36"/>
		<text transform="matrix(1 0 0 1 228.976 160.925)" class="st12 st25 st10">Women’s Rights:</text>
		<text transform="matrix(1 0 0 1 228.976 171.925)" class="st7 st10">Women’s March, </text>
		<text transform="matrix(1 0 0 1 228.976 182.9251)" class="st7 st10">March for Life</text>
		<path class="st26" d="M268.78,257.72c-2.9,0-5.26-8.02-5.26-17.92c0-3.12,0.23-6.05,0.64-8.61c0.89-5.54,2.62-9.31,4.61-9.31
			c1.61,0,3.04,2.45,4,6.32"/>
		<line class="st26" x1="268.78" y1="222.11" x2="268.78" y2="188.47"/>
		<text transform="matrix(1 0 0 1 84.7924 182.3157)" class="st21 st25 st10">Healthcare:</text>
		<text transform="matrix(1 0 0 1 84.7924 193.3157)" class="st7 st10">Affordable Care </text>
		<text transform="matrix(1 0 0 1 84.7924 204.3157)" class="st7 st10">Act repeal efforts</text>
		<line class="st26" x1="120.39" y1="208.41" x2="120.39" y2="266.87"/>
		<text transform="matrix(1 0 0 1 509.5524 181.1915)" class="st12 st25 st10">Women’s Rights:</text>
		<text transform="matrix(1 0 0 1 509.5524 192.1915)" class="st7 st10">Women’s March, </text>
		<text transform="matrix(1 0 0 1 509.5524 203.1914)" class="st7 st10">March for Life</text>
		<text transform="matrix(1 0 0 1 595.4674 171.9253)" class="st12 st25 st10">Women’s Rights:</text>
		<text transform="matrix(1 0 0 1 595.4674 182.9253)" class="st7 st10">State abortion</text>
		<text transform="matrix(1 0 0 1 595.4674 193.9253)" class="st7 st10">restrictions</text>
		<path class="st26" d="M532.18,252.15c-2.46,0-4.46-4.21-4.46-11.26c0-2.22,0.2-4.31,0.55-6.14c0.76-3.95,2.22-6.63,3.92-6.63
			c1.36,0,2.58,1.75,3.4,4.5"/>
		<line class="st26" x1="532.18" y1="228.48" x2="532.18" y2="207.41"/>
		<path class="st26" d="M620.98,249.23c-3.1,0-5.61-5.94-5.61-15.89c0-3.14,0.25-6.09,0.69-8.66c0.95-5.58,2.8-9.37,4.92-9.37
			c1.72,0,3.24,2.47,4.27,6.36"/>
		<line class="st26" x1="620.98" y1="215.29" x2="620.98" y2="198.3"/>
		<text transform="matrix(1 0 0 1 653.0635 252.5782)" class="st6 st7 st23">   Family </text>
		<text transform="matrix(1 0 0 1 647.8135 261.5782)" class="st6 st7 st23">separation</text>
		<text transform="matrix(1 0 0 1 700.1423 274.8647)" class="st6 st7 st23">Climate </text>
		<text transform="matrix(1 0 0 1 704.5223 284.8647)" class="st6 st7 st23">Strike</text>
		<text transform="matrix(1 0 0 1 176.0767 160.5054)" class="st13 st25 st10">Police:</text>
		<text transform="matrix(1 0 0 1 176.0767 171.5054)" class="st7 st10">St. Louis</text>
		<text transform="matrix(1 0 0 1 176.0767 193.3157)" class="st7 st10">protests</text>
		<text transform="matrix(1 0 0 1 176.0767 182.7654)" class="st7 st10">police</text>
		<path class="st26" d="M194.29,240.23c-1.54,0-2.79-2.78-2.79-6.21c0-1.08,0.12-2.1,0.35-2.98c0.48-1.92,1.4-3.22,2.45-3.22
			c0.85,0,1.62,0.85,2.13,2.19"/>
		<path class="st26" d="M120.52,281.07c-2.33,0-4.22-3.06-4.22-6.83c0-1.19,0.19-2.31,0.52-3.28c0.72-2.11,2.11-3.54,3.7-3.54
			c1.29,0,2.44,0.94,3.22,2.41"/>
		<line class="st26" x1="193.83" y1="228.17" x2="193.83" y2="199.98"/>
		<text transform="matrix(0.7824 0.6228 -0.6228 0.7824 171.2048 238.4423)" class="st6 st7 st23">Defend</text>
		<text transform="matrix(0.7824 0.6228 -0.6228 0.7824 172.2918 249.3359)" class="st6 st7 st23">DACA</text>
	</g>
	<g id="legend">
		<g>
			<g>
				<g>
					<rect id="education-legend_1_" x="266.7" y="7.5" class="st14" width="18.13" height="18.13"/>
					<g>
						<text transform="matrix(1 0 0 1 289.8061 19.2141)" class="st7 st10">Education</text>
					</g>
				</g>
				<g>
					<rect id="immigration-legend_1_" x="411.69" y="7.5" class="st16" width="16.63" height="18.13"/>
					<text transform="matrix(1 0 0 1 433.985 19.2139)" class="st7 st10">Immigration</text>
				</g>
				<g>
					<rect id="women-legend_4_" x="139.99" y="7.74" class="st12" width="18.13" height="18.13"/>
					<g>
						<text transform="matrix(1 0 0 1 161.8828 14.2172)" class="st7 st10">Women’s </text>
						<text transform="matrix(1 0 0 1 162.9887 24.1793)" class="st7 st10">rights</text>
					</g>
				</g>
				<g>
					<g>
						<rect id="women-legend_3_" x="544.19" y="8.15" class="st11" width="18.13" height="18.13"/>
						<g>
							<text transform="matrix(1 0 0 1 568.2582 14.6706)" class="st7 st10">Supreme</text>
							<text transform="matrix(1 0 0 1 568.2582 25.6305)" class="st7 st10">Court</text>
						</g>
					</g>
				</g>
				<g>
					<rect id="police-legend_1_" x="208.06" y="7.5" class="st13" width="18.13" height="18.13"/>
					<g>
						<text transform="matrix(1 0 0 1 231.4968 19.2139)" class="st7 st10">Police</text>
					</g>
				</g>
				<g>
					<rect id="executive-legend_1_" x="338.93" y="6.24" class="st15" width="18.13" height="18.13"/>
					<g>
						<text transform="matrix(1 0 0 1 362.2845 14.4946)" class="st24 st7 st10">Executive</text>
						<text transform="matrix(1 0 0 1 362.2845 24.4575)" class="st24 st7 st10">Branch</text>
					</g>
				</g>
				<g>
					<rect id="guns-legend_1_" x="492.93" y="8.31" class="st17" width="18.13" height="18.13"/>
					<g>
						<text transform="matrix(1 0 0 1 514.968 19.1984)" class="st7 st10">Guns</text>
					</g>
				</g>
			</g>
			<g>
				<g>
					<rect id="environment-legend_1_" x="350.21" y="41.37" class="st20" width="18.13" height="18.13"/>
					<text transform="matrix(1 0 0 1 374.031 53.8546)" class="st7 st10">Environment</text>
				</g>
				<g>
					<rect id="other-legend_1_" x="512.44" y="41.37" class="st28" width="18.13" height="18.13"/>
					<text transform="matrix(1 0 0 1 536.3855 53.6905)" class="st7 st10">Other</text>
				</g>
				<g>
					<g>
						<rect id="race-confed-legend_1_" x="167.25" y="40.78" class="st18" width="18.13" height="18.13"/>
						<g>
							<text transform="matrix(1 0 0 1 189.924 47.5847)" class="st7 st10">Racial justice or </text>
							<text transform="matrix(1 0 0 1 190.282 58.5466)" class="st7 st10">white supremacy</text>
						</g>
					</g>
				</g>
				<g>
					<g>
						<rect id="healthcare-legend_1_" x="436.16" y="41.37" class="st21" width="18.13" height="18.13"/>
					</g>
					<text transform="matrix(1 0 0 1 459.5352 53.334)" class="st7 st10">Healthcare</text>
				</g>
				<g>
					<g>
						<rect id="collective-bargaining-legend_1_" x="273.04" y="41.58" class="st19" width="18.13" height="18.13"/>
						<g>
							<text transform="matrix(1 0 0 1 297.6706 47.5847)" class="st7 st10">Collective </text>
							<text transform="matrix(1 0 0 1 297.8982 58.5466)" class="st7 st10">bargaining</text>
						</g>
					</g>
				</g>
			</g>
		</g>
	</g>
</g>
</svg>
